<?xml version="1.0" standalone="no"?>
<!DOCTYPE svg PUBLIC "-//W3C//DTD SVG 1.1//EN" "http://www.w3.org/Graphics/SVG/1.1/DTD/svg11.dtd">
<svg xmlns="http://www.w3.org/2000/svg">
<metadata>Copyright (C) 2016 by original authors @ fontello.com</metadata>
<defs>
<font id="icon" horiz-adv-x="1000" >
<font-face font-family="icon" font-weight="400" font-stretch="normal" units-per-em="1000" ascent="850" descent="-150" />
<missing-glyph horiz-adv-x="1000" />
<glyph glyph-name="shop-active" unicode="&#xe800;" d="M734 630c26 0 46-20 46-46 0-1 0-1 0-2-1-153-124-276-277-276-154 0-278 124-278 277 0 0 0 1 0 1h2c0 26 20 46 46 46 26 0 17-20 17-46 0-3 0-6-1-9 6-98 115-204 214-204 100 0 211 108 214 208 0 2 0 3 0 5 0 26-9 46 17 46z m-627-740c-38 11-65 45-67 85l0 747c0 50 39 90 88 92l747 0c51 0 92-41 92-92v-47h0l1-706c-5-46-44-82-92-82h-49v-1l-580 0" horiz-adv-x="1000" />

<glyph glyph-name="shop" unicode="&#xe801;" d="M730 638c26 0 47-21 47-47 0-1 0-1 0-2-1-155-127-281-282-281-155 0-282 127-282 282 0 0 1 1 1 1h1c0 26 21 47 47 47 26 0 18-21 18-47 0-3-1-6-1-9 5-99 116-207 217-207 101 0 213 110 217 211 0 2-1 3-1 5 0 26-8 47 18 47z m144-755h-50v0l-588 0c-26 0-47 21-47 47 0 26 21 18 47 18l547 0c131-3 120 49 120 123l0-1-1 645-1-78c0 74 12 137-120 123l-578 0c-150 5-112-52-112-123l-1 43 0-751c0-18 19-34 4-42-39 11-67 45-68 86l-1 758c0 51 40 91 90 94l758 0c52 0 94-42 94-94v-47h0l0-717c-5-47-44-84-93-84z m-784 847v0l58 30-58-30z m812 30l-108 0 115 6-7-6z m1-782l-107-30 77 0 30 30z" horiz-adv-x="1000" />

<glyph glyph-name="personal-active" unicode="&#xe802;" d="M956 19c-1 3-1 5-1 7 0 87-122 189-301 227 37 42 65 99 65 163v172c0 135-95 237-222 237-127 0-222-102-222-237v-172c0-68 17-127 58-169-154-40-292-126-292-222 0-2-2-4-2-7-2-14-6-48 33-68 83-43 242-69 425-69s341 26 425 69c39 20 35 55 34 69z" horiz-adv-x="1000" />

<glyph glyph-name="personal" unicode="&#xe803;" d="M980 16c0 2 0 4 0 6 0 88-127 190-313 229 38 42 68 99 68 163v173c0 136-99 238-231 238-131 0-230-102-230-238v-173c0-68 18-127 60-170-159-40-303-126-303-223 0-2-2-4-2-6-2-15-6-49 34-69 87-43 251-69 441-69 190 0 355 26 441 69 41 20 37 55 35 70z m-645 398v173c0 102 73 178 169 178 97 0 170-76 170-178v-173c0-101-73-177-170-177-96 0-169 76-169 177z m582-415c-77-38-236-62-413-62s-336 24-414 62c-1 1-2 2-2 2 0 2 0 5 0 8 1 4 1 8 1 12 0 54 123 148 304 177 29-13 62-21 97-21 38 0 73 9 104 24 192-25 324-124 324-179 0-4 0-8 1-12 0-3 1-8 1-8 0 0-1-1-3-3z" horiz-adv-x="1000" />

<glyph glyph-name="house" unicode="&#xe804;" d="M722-120h-64-316-64-253v734h253v134h190v82h64v-82h190v-267h253v-601h-253z m-444 668h-189v-601h63v74h63v-74h63v601z m380-67v200h-316v-67-667h95v74h126v-74h95v534z m253-67h-189v-467h63v74h63v-74h64v467z m-126-67h63v-66h-63v66z m-348-133h126v-67h-126v67z m0 267h126v-67h-126v67z m-285-134h63v-66h-63v66z" horiz-adv-x="1000" />

<glyph glyph-name="house-active" unicode="&#xe805;" d="M713-113h-62-306-61-245v710h245v129h184v79h61v-79h184v-258h244v-581h-244z m-551 65v71h61v-71m214 0v71h123v-71m214 0v71h61v-71m-61 387h61v-65h-61v65z m-337-129h123v-65h-123v65z m0 258h123v-64h-123v64z m-275-129h61v-65h-61v65z" horiz-adv-x="1000" />

<glyph glyph-name="home" unicode="&#xe806;" d="M940 408l-355 368c-22 23-52 36-83 36-32 0-61-13-83-36l-355-368c-36-38-32-71-26-85 5-10 19-37 61-37h52v-283c0-65 46-126 112-126h60 91v67 234c0 32-5 50 28 50h60 60c32 0 28-18 28-50v-234-67h91 60c65 0 112 61 112 126v283h52c42 0 56 27 60 37 6 14 11 47-25 85z m-35-63h-45-30-36v-342c0-33-21-67-54-67h-92v242c0 64-21 108-86 108h-60-60c-66 0-86-44-86-108v-242h-93c-33 0-53 34-53 67v342h-36-30-45c-1 0-2 4-3 4 2 3 6 12 12 18l354 369c11 11 26 18 40 17 15 1 29-6 39-17l355-369c6-6 9-15 11-18-1 0-1-4-2-4z" horiz-adv-x="1000" />

<glyph glyph-name="home-active" unicode="&#xe807;" d="M952 418l-368 383c-23 24-54 37-87 37-33 0-63-13-86-37l-369-383c-38-40-33-74-27-88 5-11 20-38 64-38h54v-296c0-66 48-130 116-130h62 95v70 243c0 33-5 52 29 52h62 62c35 0 29-19 29-52v-243-70h95 62c69 0 117 64 117 130v296h54c44 0 59 27 63 38 7 14 11 48-27 88z" horiz-adv-x="1000" />

<glyph glyph-name="bbs" unicode="&#xe808;" d="M889 720h-773c-49 0-89-40-89-89v-30c0-49 40-89 89-89h773c49 0 89 40 89 89v30c0 49-40 89-89 89z m29-119c0-16-13-29-29-29h-773c-16 0-29 13-29 29v30c0 16 13 30 29 30h773c16 0 29-14 29-30v-30z m-178-415h-624c-49 0-89-40-89-90v-29c0-49 40-89 89-89h624c49 0 89 40 89 89v29c0 50-40 90-89 90z m30-119c0-17-14-30-30-30h-624c-16 0-29 13-29 30v29c0 17 13 30 29 30h624c16 0 30-13 30-30v-29z m-654 178h446c49 0 89 40 89 89v30c0 49-40 89-89 89h-446c-49 0-89-40-89-89v-30c0-49 40-89 89-89z m-29 119c0 16 13 29 29 29h446c16 0 30-13 30-29v-30c0-16-14-30-30-30h-446c-16 0-29 14-29 30v30z" horiz-adv-x="1000" />

<glyph glyph-name="bbs-active" unicode="&#xe809;" d="M881 724h-766c-48 0-88-39-88-88v-30c0-48 40-88 88-88h766c49 0 88 40 88 88v30c0 49-39 88-88 88z m-147-530h-619c-48 0-88-39-88-88v-30c0-48 40-88 88-88h619c48 0 88 40 88 88v30c0 49-40 88-88 88z m-619-147m0 206h442c49 0 88 40 88 88v30c0 49-39 88-88 88h-442c-48 0-88-39-88-88v-30c0-48 40-88 88-88z" horiz-adv-x="1000" />

<glyph glyph-name="scanner" unicode="&#xe80a;" d="M30 313v47h939v-47h-939z m890 482h-181v24h204v-230h-23v206z m-872-206h-23v230h214v-24h-191v-206z m0-686h191v-23h-214v209h23v-186z m872 186h23v-209h-204v23h181v186z" horiz-adv-x="1000" />

<glyph glyph-name="picture" unicode="&#xe80b;" d="M357 529q0-45-31-76t-76-32-76 32-31 76 31 76 76 31 76-31 31-76z m572-215v-250h-786v107l178 179 90-89 285 285z m53 393h-893q-7 0-12-5t-6-13v-678q0-7 6-13t12-5h893q7 0 13 5t5 13v678q0 8-5 13t-13 5z m89-18v-678q0-37-26-63t-63-27h-893q-36 0-63 27t-26 63v678q0 37 26 63t63 27h893q37 0 63-27t26-63z" horiz-adv-x="1071.4" />

<glyph glyph-name="up" unicode="&#xe80c;" d="M21 588l479-479 479 479" horiz-adv-x="1000" />

<glyph glyph-name="mes" unicode="&#xe80d;" d="M500-100c-247 0-450 203-450 450 0 248 203 450 450 450 248 0 450-202 450-450 0-247-202-450-450-450z m275 600c0 43-32 75-75 75h-400c-42 0-75-32-75-75v-250c0-42 33-75 75-75h25v-125h50v18l108 107h217c43 0 75 33 75 75v250z m-100-275h-207l-93-92v92h-50c-27 0-50 23-50 50v200c0 28 23 50 50 50h350c28 0 50-22 50-50v-200c0-27-22-50-50-50z m0 213c0 7-5 12-12 12h-325c-8 0-13-5-13-12v-25c0-8 5-13 13-13h325c7 0 12 5 12 13v25z m0-100c0 7-5 12-12 12h-325c-8 0-13-5-13-12v-25c0-8 5-13 13-13h325c7 0 12 5 12 13v25z" horiz-adv-x="1000" />

<glyph glyph-name="share" unicode="&#xe80e;" d="M795 490c85 0 155 70 155 155 0 85-70 155-155 155s-155-70-155-155c0-7 0-15 3-22l-325-125c-28 30-68 50-113 50-85 0-155-70-155-155 0-85 70-155 155-155 33 0 65 10 90 27l220-147c-10-18-15-40-15-63 0-85 70-155 155-155s155 70 155 155c0 85-70 155-155 155-42 0-80-17-107-45l-213 143c15 25 25 52 25 85 0 20-5 40-10 57l313 120c25-47 75-80 132-80z m-590-195c-55 0-97 45-97 98 0 55 45 97 97 97s98-45 98-97c0-55-43-98-98-98z m450-142c55 0 98-45 98-98 0-55-45-98-98-98s-97 46-97 98c-3 55 42 98 97 98z m140 590c55 0 98-45 98-98 0-55-45-97-98-97s-97 45-97 97c0 55 42 98 97 98z" horiz-adv-x="1000" />

<glyph glyph-name="talk" unicode="&#xe80f;" d="M258 450c0 25 20 44 45 44 25 0 44-19 44-44 0-25-19-44-44-44-25 0-45 22-45 44z m242-44c-25 0-44 19-44 44 0 25 19 44 44 44 25 0 44-19 44-44 0-22-19-44-44-44z m197 91c25 0 45-19 45-44 0-25-20-45-45-45-25 0-44 20-44 45 0 22 19 44 44 44z m131-361h-89c-11 0-22 11-22 22 0 11 11 23 22 23h89c25 0 44 19 44 44v453c0 25-19 44-44 44h-656c-25 0-44-19-44-44v-450c0-25 19-45 44-45h372c6 0 12-2 17-5l197-203c9-8 9-22 0-31-5-5-11-5-16-5-6 0-11 3-17 5l-192 198h-361c-47 0-89 41-89 89v447c0 47 39 89 89 89h659c47 0 86-42 86-89v-450c0-50-39-92-89-92z" horiz-adv-x="1000" />

<glyph glyph-name="tell" unicode="&#xe810;" d="M503 800c247 0 447-202 447-450 0-247-200-450-447-450-250 0-453 203-453 450 0 248 203 450 453 450z m-73-230c0 35 35 63 70 63 35 0 70-28 70-63v-260c0-35-42-62-77-62-35 0-65 27-65 62m5-167c0 40 32 70 70 70 40 0 70-33 70-70 0-40-33-70-70-70-40 0-70 30-70 70" horiz-adv-x="1000" />

<glyph glyph-name="click" unicode="&#xe811;" d="M694 697c-83 0-158-44-194-111-36 67-111 111-194 111-123 0-223-94-223-211 0-30 9-64 25-86 81-114 392-397 392-397s311 283 392 397c16 25 25 56 25 86 0 117-100 211-223 211l0 0z" horiz-adv-x="1000" />

<glyph glyph-name="love" unicode="&#xe812;" d="M710 683c100 0 183-80 183-180 0-25-8-50-18-65-65-98-285-313-375-398-90 85-310 300-375 395-12 18-17 43-17 65 0 100 82 180 182 180 68 0 130-37 163-95 10-17 30-30 50-30 20 0 40 13 50 30 30 60 90 98 157 98m0 55c-92 0-170-50-210-125-40 75-120 125-210 125-132 0-240-105-240-235 0-35 10-70 28-98 87-125 422-443 422-443s335 318 423 443c17 28 27 63 27 98 0 130-107 235-240 235l0 0z" horiz-adv-x="1000" />

<glyph glyph-name="order" unicode="&#xe813;" d="M335 226h232c21 0 39-18 39-40 0-22-18-40-39-40h-232c-21 0-38 18-38 40 0 22 17 40 38 40z m0 160h309c22 0 39-17 39-40 0-22-17-40-39-40h-309c-21 0-38 18-38 40 0 22 17 40 38 40z m464-280c-22 0-39 18-39 40v321h-541v-481c0-22 18-40 39-40h463c22 0 39 18 39 40 0 22 17 40 39 40 21 0 38-18 38-40 0-67-52-121-116-121h-463c-64 0-116 54-116 121v641c0 66 52 120 116 120h39v40c0 22 17 40 38 40 22 0 39-18 39-40v-40h77v40c0 22 17 40 39 40s38-18 38-40v-40h78v40c0 22 17 40 38 40 22 0 39-18 39-40v-40h38c64 0 116-54 116-120v-481c0-22-17-40-38-40z m-39 521c0 22-17 40-39 40h-38v-40c0-22-17-40-39-40-21 0-38 18-38 40v40h-78v-40c0-22-17-40-38-40s-39 18-39 40v40h-77v-40c0-22-17-40-39-40-21 0-38 18-38 40v40h-39c-21 0-39-18-39-40v-80h541v80z" horiz-adv-x="1000" />

<glyph glyph-name="score" unicode="&#xe814;" d="M485 77c-219 0-397 119-397 265h79c0-117 143-212 318-212 176 0 318 95 318 212h79c0-146-177-265-397-265z m0 212c-219 0-397 119-397 265 0 146 178 265 397 265 220 0 397-119 397-265 0-146-177-265-397-265z m0 477c-175 0-318-95-318-212 0-117 143-212 318-212 176 0 318 95 318 212 0 117-142 212-318 212z m0-848c176 0 318 95 318 212h79c0-146-177-265-397-265-219 0-397 119-397 265h79c0-117 143-212 318-212z" horiz-adv-x="1000" />

<glyph glyph-name="warn" unicode="&#xe815;" d="M871 30c0-21-16-39-37-39h-158c-30-67-95-113-169-113-74 0-139 46-169 113h-171c-21 0-37 18-37 39 0 21 16 38 37 38h197 286 113l-19 267c-9 130-115 232-241 232-126 0-232-102-241-232l-11-162c-1-21-19-37-39-35-21 1-36 20-35 41l11 161c9 132 94 241 208 284v59c0 63 50 115 111 115 61 0 111-52 111-115v-61c110-45 191-153 200-282l19-269c0-1 0-2 0-3 19-2 34-18 34-38z m-445-39c21-22 50-36 81-36 31 0 60 14 81 36h-162z m118 692c0 21-17 38-37 38-20 0-37-17-37-38v-41c11 2 22 2 33 2 14 0 28-1 41-3v42z" horiz-adv-x="1000" />

<glyph glyph-name="star" unicode="&#xe816;" d="M487 737l126-247 260-53-180-207 34-280-240 120-240-120 33 280-180 207 260 53 127 247" horiz-adv-x="1000" />

<glyph glyph-name="place" unicode="&#xe817;" d="M517 90c-117 0-264 290-264 427 0 146 120 266 264 266s263-120 263-266c0-137-147-427-263-427z m0 643c-120 0-217-96-217-216 0-130 140-380 217-380 73 0 216 250 216 380 0 120-96 216-216 216z m0-336c-74 0-137 60-137 136 0 77 60 137 137 137s136-60 136-137c0-76-63-136-136-136z m0 226c-50 0-87-40-87-90 0-50 40-90 87-90s86 40 86 90c0 50-40 90-86 90z m386-533c0-113-213-173-413-173-193 0-393 60-393 173m66 0c0-43 130-103 324-103 213 0 346 70 346 103" horiz-adv-x="1000" />

<glyph glyph-name="loginmore" unicode="&#xe818;" d="M455 780c30 0 55-25 55-55s-25-55-55-55-55 25-55 55 25 55 55 55z m0-277c30 0 55-25 55-55 0-30-25-55-55-55s-55 25-55 55c0 30 25 55 55 55z m0-280c30 0 55-25 55-55 0-30-25-55-55-55s-55 25-55 55c0 30 25 55 55 55z" horiz-adv-x="1000" />

<glyph glyph-name="lamp" unicode="&#xe819;" d="M209-110l0 104 282 0 0-104q-70-42-142-40-70-2-140 40z m276 164l-270 0q0 72-36 140t-78 113-74 112-26 139q8 120 94 206t254 86q170 0 255-86t95-206q4-60-16-113t-52-96-65-85-57-96-24-114z m-378 496q-4-4 0-20t2-20 5-19 6-18 8-18 11-19 13-19 14-19 15-21 16-23q88-122 112-212l82 0q24 94 112 212 4 6 25 35t25 36 17 29 16 33 6 28 1 35q-16 196-244 196-226 0-242-196z" horiz-adv-x="700" />

<glyph glyph-name="qrcode" unicode="&#xe81a;" d="M0-150l0 455 455 0 0-455-455 0z m0 545l0 455 455 0 0-455-455 0z m90-455l273 0 0 273-273 0 0-273z m0 547l273 0 0 273-273 0 0-273z m92-455l0 92 91 0 0-92-91 0z m0 545l0 89 91 0 0-89-91 0z m363-727l0 455 271 0 0-92 94 0 0 92 90 0 0-273-273 0 0 90-90 0 0-272-92 0z m0 545l0 455 455 0 0-455-455 0z m92 92l273 0 0 273-273 0 0-273z m90-547l89 0 0-90-89 0 0 90z m0 637l0 89 89 0 0-89-89 0z m183-637l90 0 0-90-90 0 0 90z" horiz-adv-x="1000" />

<glyph glyph-name="lt" unicode="&#xe81b;" d="M281 307l358-413c20-23 52-23 72 0l28 32-331 381c-20 23-20 60 0 83l331 382-28 31c-20 23-52 23-72 0l-358-413c-20-23-20-60 0-83z" horiz-adv-x="1000" />

<glyph glyph-name="m-order-5" unicode="&#xe81c;" d="M982 343h-1c-12 236-210 424-452 424h-48c-243 0-440-188-453-424h-1v-330c0 0 31-94 143-94h48c79 0 143 63 143 141v141c0 79-64 142-143 142h-94c12 184 167 330 357 330h48c189 0 344-146 357-330h-95c-79 0-143-63-143-142v-141c0-78 64-141 143-141h48c113 0 143 94 143 94v330z m-238-283v141c0 27 21 48 47 48h96v-236h-96c-26 0-47 21-47 47z m-478 141v-141c0-26-22-47-48-47h-96v236h96c26 0 48-21 48-48z" horiz-adv-x="1000" />

<glyph glyph-name="m-order-1" unicode="&#xe81d;" d="M931-133h-871c-17 0-31 15-31 32v573h210v79c0 132 86 271 261 280 214 11 293-148 293-280v-79h179v-573c0-17-28-29-41-32z m-231 684c0 115-66 177-179 177-113 0-189-62-189-177v-79h368v79z m179-172h-127-472-158v-418h757v418z" horiz-adv-x="1000" />

<glyph glyph-name="m-order-2" unicode="&#xe81e;" d="M971 467c0 55-45 99-100 99l-649 250c-55 0-100-45-100-100v-150c-55 0-100-44-100-99v-500c0-55 45-100 100-100h749c55 0 100 45 100 100v500z m-150-500h-649c-28 0-50 23-50 50v400c0 27 22 50 50 50h649c28 0 50-23 50-50v-400c0-27-22-50-50-50z m-499 275c0 14-11 25-25 25h-50c-14 0-25-11-25-25v-50c0-14 11-25 25-25h50c14 0 25 11 25 25v50z m-100 410c0 28 22 50 50 50l349-136h-399v86z" horiz-adv-x="1000" />

<glyph glyph-name="m-order-3" unicode="&#xe81f;" d="M850 820h-710c-65 0-118-53-118-118v-710c0-66 53-119 118-119h710c66 0 119 53 119 119v710c0 65-53 118-119 118z m12-828c0-33 21-12-12-12h-710c-32 0-12-21-12 12v710c0 32-20 11 12 11h710c33 0 12 21 12-11v-710z m-495 384l65-121c0 0 104 246 268 328-4-58-20-109 8-172-72-15-220-191-268-277-69 82-149 144-205 164l132 78z" horiz-adv-x="1000" />

<glyph glyph-name="m-order-4" unicode="&#xe820;" d="M879 200v396c0 58-48 105-107 105h-555c-59 0-106-47-106-105v-396l-86-188c0-35 29-63 64-63h811c35 0 64 28 64 63l-85 188z m-726-84h683l43-83h-768l42 83z m598 84h-512c-24 0-43 18-43 41v334c0 23 19 42 43 42h512c23 0 42-19 42-42v-334c0-23-19-41-42-41z" horiz-adv-x="1000" />

<glyph glyph-name="m-tools-1" unicode="&#xe821;" d="M505-129c-263 0-477 214-477 476 0 263 214 477 477 477 263 0 477-214 477-477 0-262-214-476-477-476z m0 885c-225 0-409-183-409-409 0-225 184-408 409-408 225 0 409 183 409 408 0 226-184 409-409 409z m-212-468l45 51 127-109 184 327 59-33-224-400-191 164z" horiz-adv-x="1000" />

<glyph glyph-name="m-tools-6" unicode="&#xe822;" d="M787 344c0-23-19-42-42-42l-244 0c-3-1-7-2-11-2-19 0-34 12-40 28-2 5-3 11-3 17 0 2 0 4 0 6l1 248c0 23 19 42 42 42 23 0 42-19 42-42l0-212 213 0c23 0 42-19 42-43z m-297-466c-100 0-192 32-268 85-18 5-31 21-31 41l0 4c0 23 19 42 42 42 13 0 23-5 31-13 63-47 141-74 225-74 211 0 382 171 382 382s-171 382-382 382-382-171-382-382c0-58 13-113 36-163l-6-6c15-7 26-22 26-40l0-4c0-23-19-42-42-42-19 0-36 13-41 31-36 66-57 142-57 224 0 257 209 466 467 466 257 0 466-209 466-466 0-258-209-467-466-467z" horiz-adv-x="1000" />

<glyph glyph-name="m-tools-4" unicode="&#xe823;" d="M761 176c1-5 2-10 2-15l0-6h-1c-1-1-1-2-1-4l-1-3c-7-20-29-30-48-23-10 3-18 11-22 20l-1-2-1 6c-1 5-2 11-1 16l-10 106 152 161-222 46-111 194v-4l-108-191-218-48 148-157-31-231 209 100 83-37-1-1c19-8 28-29 21-49l-1-3c-7-21-29-31-49-24-1 0-2 1-3 1v0l-50 23-258-121c-13 3-26 12-34 24l35 285-197 213c1 14 7 27 16 37l279 54 144 263c10 2 20 2 30-1l144-262 278-53c10-11 16-24 17-39l-197-212 8-63z m-53-141l52-53 132 132c15 16 40 16 56 0 15-15 15-40 0-56l-156-156c-1-2-2-4-3-5-8-8-19-12-29-12-10 0-21 4-29 12-1 1-2 3-3 5l-76 76c-16 16-16 41 0 57 15 15 40 15 56 0z" horiz-adv-x="1000" />

<glyph glyph-name="m-tools-5" unicode="&#xe824;" d="M362 822h-190c-79 0-143-64-143-142v-190c0-26 22-48 48-48 26 0 47 22 47 48v142c0 53 43 95 95 95h143c26 0 47 22 47 48 0 26-21 47-47 47z m0-855h-143c-52 0-95 43-95 95v143c0 26-21 47-47 47-26 0-48-21-48-47v-190c0-79 64-143 143-143h190c26 0 47 21 47 48 0 26-21 47-47 47z m618 713c0 79-64 142-143 142h-190c-26 0-47-21-47-47 0-26 21-48 47-48h143c52 0 95-42 95-95v-142c0-26 21-48 47-48 26 0 48 22 48 48v190z m0-475c0 26-22 47-48 47-26 0-47-21-47-47v-143c0-52-43-95-95-95h-143c-26 0-47-21-47-47 0-27 21-48 47-48h190c79 0 143 64 143 143v190z" horiz-adv-x="1000" />

<glyph glyph-name="m-tools-2" unicode="&#xe825;" d="M860-124h-257c-47 0-85 38-85 85v257c0 47 38 85 85 85h257c47 0 85-38 85-85v-257c0-47-38-85-85-85z m28 342c0 16-13 28-28 28h-257c-15 0-28-12-28-28v-257c0-15 13-28 28-28h257c15 0 28 13 28 28v257z m-513-342h-256c-47 0-85 38-85 85v257c0 47 38 85 85 85h256c48 0 86-38 86-85v-257c0-47-38-85-86-85z m29 342c0 16-13 28-29 28h-256c-16 0-28-12-28-28v-257c0-15 12-28 28-28h256c16 0 29 13 29 28v257z m-29 142h-256c-47 0-85 39-85 86v256c0 47 38 86 85 86h256c48 0 86-39 86-86v-256c0-47-38-86-86-86z m29 342c0 16-13 29-29 29h-256c-16 0-28-13-28-29v-256c0-16 12-29 28-29h256c16 0 29 13 29 29v256z m449 71c51 0 92-41 92-92 0-13-3-25-9-34-33-49-145-160-190-204-46 44-158 155-190 204-6 9-10 21-10 34 0 51 42 92 93 92 34 0 65-19 82-49 5-9 14-15 25-15 10 0 20 6 25 15 16 30 47 49 82 49m0 29c-47 0-87-26-107-64-21 38-61 64-107 64-67 0-121-54-121-121 0-18 5-36 14-50 43-65 214-228 214-228s170 163 213 228c10 14 15 32 15 50 0 67-55 121-121 121l0 0z" horiz-adv-x="1000" />

<glyph glyph-name="m-tools-3" unicode="&#xe826;" d="M212-133c-17 0-32 8-41 21-8 11-12 24-12 40v811c0 45 37 81 81 81h534c44 0 81-36 81-81v-811c0-42-27-61-52-61-10 0-24 3-41 17l-229 187c-7 5-23 6-30 0l-251-189c-13-10-27-15-40-15z m28 884c-6 0-11-6-11-12v-788l232 176c32 24 84 23 116-3l208-170v785c0 6-5 12-11 12h-534z" horiz-adv-x="1000" />

<glyph glyph-name="m-tools-7" unicode="&#xe827;" d="M505-129c-263 0-477 214-477 476 0 263 214 477 477 477 263 0 477-214 477-477 0-262-214-476-477-476z m0 885c-225 0-409-183-409-409 0-225 184-408 409-408 225 0 409 183 409 408 0 226-184 409-409 409z m-212-468l45 51 127-109 184 327 59-33-224-400-191 164z" horiz-adv-x="1000" />

<glyph glyph-name="m-tools-8" unicode="&#xe828;" d="M978 246c-2-9-8-17-17-19-51-11-92-42-118-87-26-45-32-97-16-147 2-8-1-18-7-24-47-40-99-71-157-91-9-3-18-1-25 6-35 38-82 59-134 59s-98-21-134-59c-4-5-10-7-16-7-3 0-5 0-8 1-58 20-110 51-157 91-7 6-9 16-7 24 16 50 10 102-16 147-26 45-67 76-118 87-9 2-15 10-17 19-6 30-9 61-9 91 0 29 3 60 9 91 2 9 8 16 17 18 51 12 92 43 118 88 26 44 31 96 16 146-2 9 0 18 7 24 47 41 99 71 157 92 9 3 18 0 24-7 36-38 83-59 134-59s99 21 134 59c7 7 16 10 25 7 58-21 110-51 157-92 7-6 9-15 7-24-16-50-10-102 16-146 26-45 67-76 118-88 9-2 15-9 17-18 6-31 9-62 9-91 0-30-3-61-9-91z m-42 159c-56 17-104 55-133 105-29 51-38 112-24 169-36 28-75 51-118 68-42-41-98-63-157-63-58 0-114 23-156 63-43-17-82-40-118-68 14-57 5-118-24-169-29-50-77-88-133-105-3-23-5-46-5-68 0-23 2-45 5-69 56-16 104-54 133-105 29-51 38-111 24-168 36-29 75-52 118-68 42 39 98 62 156 62 59 0 115-22 157-62 43 16 82 39 118 68-14 57-5 117 24 168 29 51 77 89 132 105 4 24 6 47 6 69 0 22-2 45-5 68z m-300-116c-13 3-21 15-19 27 2 8 2 15 2 21 0 63-51 115-114 115s-115-52-115-115c0-64 51-116 115-116 6 0 12 1 20 2 13 3 24-6 27-18 2-13-6-25-19-27-11-2-20-3-28-3-89 0-161 72-161 162 0 89 72 162 161 162s160-73 160-162c0-9-1-18-3-29-2-13-14-21-26-19z" horiz-adv-x="1000" />

<glyph glyph-name="m-tools-9" unicode="&#xe829;" d="M502 782c-265 0-479-148-479-330 0-74 36-141 96-196v-321h96v31l159 157c0 0 134 0 128 0 265 0 480 147 480 329s-215 330-480 330z m0-565h-160l-127-125v219c0 0-96 33-96 141 0 130 171 236 383 236 212 0 384-106 384-236 0-130-172-235-384-235z" horiz-adv-x="1000" />

<glyph glyph-name="coin-man" unicode="&#xe82a;" d="M42-135l-1 5c0 5 1 11 3 16 23 161 129 295 273 357-84 58-140 155-140 265 0 178 144 322 321 322 178 0 322-144 322-322 0-110-56-207-140-265 145-63 252-198 273-361 1-4 2-8 2-12l1-5" horiz-adv-x="1000" />

<glyph glyph-name="coin-tel" unicode="&#xe82b;" d="M548 175c34 65 102 110 181 110 112 0 202-90 202-202 0-36-9-69-26-99l-4 4c-12-8-28-9-41-1l-3 2c-18 10-24 34-13 52 1 0 2 1 2 1l-2 3c4 12 6 24 6 38 0 66-54 120-121 120-55 0-101-37-115-88-1-6-2-13-6-19-12-19-36-25-55-13l-4 2c-5 3-10 8-13 13l-9-4 0 0c0 0 0 1 0 1-132 62-236 174-287 311-1 0-1 0-2 0l4 5c-8 8-14 19-14 31l0 3c0 22 16 39 37 40l0 1c58 9 102 59 102 119 0 67-54 121-121 121-67 0-122-54-122-121 0-3 1-6 1-9h0c1-126 36-210 47-232 62-153 181-276 331-344 9-4 22-10 37-16 1-1 2-1 3-1 0 0 0 0 0 0 37-14 89-29 155-37 10-2 21-4 31-4 5 0 9 1 13 1l1-2c13 9 31 10 45 2l3-2c19-11 25-36 14-55-1-1-2-2-3-3l6-6c-9-3-18-6-27-9-1 0-2 0-2 0-16-4-33-7-50-7-15 0-29 2-43 5-360 41-641 344-643 714-1 2-1 5-1 7 0 5 1 10 1 14 0 10 0 19 1 28h3c19 91 100 160 198 160 112 0 202-90 202-202 0-85-53-158-127-187 44-107 126-194 228-245z" horiz-adv-x="1000" />
</font>
</defs>
</svg>
