<?xml version="1.0" encoding="utf-8"?>
<!-- Generator: Adobe Illustrator 16.0.0, SVG Export Plug-In . SVG Version: 6.00 Build 0)  -->
<!DOCTYPE svg PUBLIC "-//W3C//DTD SVG 1.1//EN" "http://www.w3.org/Graphics/SVG/1.1/DTD/svg11.dtd">
<svg version="1.1" id="图层_1" xmlns="http://www.w3.org/2000/svg" xmlns:xlink="http://www.w3.org/1999/xlink" x="0px" y="0px"
	 width="39.69px" height="39.69px" viewBox="0 0 39.69 39.69" enable-background="new 0 0 39.69 39.69" xml:space="preserve">
<path fill-rule="evenodd" clip-rule="evenodd" fill="none" d="M38.991,20.129h-0.048C38.448,10.75,30.604,3.291,20.976,3.291H19.08
	c-9.631,0-17.472,7.459-17.968,16.838H1.064v13.097c0,0,1.224,3.741,5.689,3.741h1.896c3.143,0,5.689-2.513,5.689-5.614v-5.611
	c0-3.1-2.547-5.612-5.689-5.612H4.904c0.49-7.312,6.64-13.096,14.176-13.096h1.896c7.536,0,13.687,5.784,14.175,13.096h-3.744
	c-3.142,0-5.689,2.513-5.689,5.612v5.611c0,3.102,2.548,5.614,5.689,5.614h1.896c4.464,0,5.688-3.741,5.688-3.741V20.129z
	 M29.51,31.353v-5.611c0-1.033,0.849-1.871,1.896-1.871h3.792v9.355h-3.792C30.358,33.226,29.51,32.387,29.51,31.353z
	 M10.546,25.741v5.611c0,1.034-0.85,1.873-1.897,1.873H4.857V23.87h3.792C9.696,23.87,10.546,24.708,10.546,25.741z"/>
</svg>
