<?xml version="1.0" encoding="utf-8"?>
<!-- Generator: Adobe Illustrator 16.0.0, SVG Export Plug-In . SVG Version: 6.00 Build 0)  -->
<!DOCTYPE svg PUBLIC "-//W3C//DTD SVG 1.1//EN" "http://www.w3.org/Graphics/SVG/1.1/DTD/svg11.dtd">
<svg version="1.1" id="图层_1" xmlns="http://www.w3.org/2000/svg" xmlns:xlink="http://www.w3.org/1999/xlink" x="0px" y="0px"
	 width="39.69px" height="39.69px" viewBox="0 0 39.69 39.69" enable-background="new 0 0 39.69 39.69" xml:space="preserve">
<path fill="none" d="M33.744,1.197H5.567c-2.59,0-4.696,2.105-4.696,4.695v28.175c0,2.59,2.106,4.695,4.696,4.695h28.177
	c2.593,0,4.698-2.105,4.698-4.695V5.892C38.442,3.302,36.337,1.197,33.744,1.197z M34.217,34.067c0,1.294,0.823,0.47-0.473,0.47
	H5.567c-1.294,0-0.469,0.824-0.469-0.47V5.892c0-1.294-0.825-0.469,0.469-0.469h28.177c1.296,0,0.473-0.825,0.473,0.469V34.067z"/>
<path fill-rule="evenodd" clip-rule="evenodd" fill="none" d="M14.578,18.813l2.547,4.81c0,0,4.139-9.775,10.667-13.034
	c-0.159,2.328-0.797,4.344,0.316,6.827c-2.863,0.62-8.754,7.603-10.665,11.018c-2.706-3.261-5.891-5.741-8.119-6.519L14.578,18.813z
	"/>
</svg>
