<?xml version="1.0" encoding="utf-8"?>
<!-- Generator: Adobe Illustrator 16.0.0, SVG Export Plug-In . SVG Version: 6.00 Build 0)  -->
<!DOCTYPE svg PUBLIC "-//W3C//DTD SVG 1.1//EN" "http://www.w3.org/Graphics/SVG/1.1/DTD/svg11.dtd">
<svg version="1.1" id="图层_1" xmlns="http://www.w3.org/2000/svg" xmlns:xlink="http://www.w3.org/1999/xlink" x="0px" y="0px"
	 width="39.69px" height="39.69px" viewBox="0 0 39.69 39.69" enable-background="new 0 0 39.69 39.69" xml:space="preserve">
<path fill-rule="evenodd" clip-rule="evenodd" fill="none" d="M36.938,38.994H2.385c-0.689,0-1.248-0.564-1.248-1.263V15.009h8.354
	v-3.157c0-5.229,3.396-10.728,10.36-11.095C28.34,0.312,31.46,6.624,31.46,11.853v3.157h7.106v22.722
	C38.566,38.43,37.475,38.893,36.938,38.994z M27.771,11.853c0-4.531-2.627-7.026-7.106-7.026c-4.478,0-7.485,2.495-7.485,7.026
	v3.157h14.592V11.853z M34.878,18.712h-5.046H11.118H4.827v16.579h30.051V18.712z"/>
</svg>
