<?xml version="1.0" encoding="utf-8"?>
<!-- Generator: Adobe Illustrator 16.0.0, SVG Export Plug-In . SVG Version: 6.00 Build 0)  -->
<!DOCTYPE svg PUBLIC "-//W3C//DTD SVG 1.1//EN" "http://www.w3.org/Graphics/SVG/1.1/DTD/svg11.dtd">
<svg version="1.1" id="图层_1" xmlns="http://www.w3.org/2000/svg" xmlns:xlink="http://www.w3.org/1999/xlink" x="0px" y="0px"
	 width="39.69px" height="39.69px" viewBox="0 0 39.69 39.69" enable-background="new 0 0 39.69 39.69" xml:space="preserve">
<path fill-rule="evenodd" clip-rule="evenodd" fill="none" d="M38.531,15.22c0-2.189-1.776-3.963-3.963-3.963L8.806,1.35
	c-2.188,0-3.963,1.774-3.963,3.962v5.944c-2.188,0-3.963,1.774-3.963,3.963v19.814c0,2.187,1.774,3.963,3.963,3.963h29.726
	c2.187,0,3.963-1.776,3.963-3.963V15.22z M32.585,35.034H6.824c-1.094,0-1.982-0.889-1.982-1.983v-15.85
	c0-1.095,0.888-1.981,1.982-1.981h25.761c1.095,0,1.983,0.887,1.983,1.981v15.85C34.568,34.146,33.68,35.034,32.585,35.034z
	 M12.769,24.137c0-0.548-0.444-0.992-0.991-0.992H9.796c-0.547,0-0.991,0.444-0.991,0.992v1.98c0,0.548,0.443,0.991,0.991,0.991
	h1.982c0.546,0,0.991-0.443,0.991-0.991V24.137z M8.806,7.851c0-1.094,0.887-1.98,1.982-1.98l13.871,5.386H8.806V7.851z"/>
</svg>
