<?xml version="1.0" encoding="utf-8"?>
<!-- Generator: Adobe Illustrator 16.0.0, SVG Export Plug-In . SVG Version: 6.00 Build 0)  -->
<!DOCTYPE svg PUBLIC "-//W3C//DTD SVG 1.1//EN" "http://www.w3.org/Graphics/SVG/1.1/DTD/svg11.dtd">
<svg version="1.1" id="图层_1" xmlns="http://www.w3.org/2000/svg" xmlns:xlink="http://www.w3.org/1999/xlink" x="0px" y="0px"
	 width="39.69px" height="39.69px" viewBox="0 0 39.69 39.69" enable-background="new 0 0 39.69 39.69" xml:space="preserve">
<path fill-rule="evenodd" clip-rule="evenodd" fill="none" d="M34.88,25.811V10.075c0-2.286-1.896-4.141-4.235-4.141H8.624
	c-2.339,0-4.235,1.855-4.235,4.141v15.736l-3.388,7.455c0,1.372,1.138,2.484,2.541,2.484h32.184c1.402,0,2.541-1.112,2.541-2.484
	L34.88,25.811z M6.083,29.124h27.102l1.694,3.312H4.389L6.083,29.124z M29.798,25.811H9.471c-0.936,0-1.694-0.74-1.694-1.656v-13.25
	c0-0.915,0.758-1.657,1.694-1.657h20.327c0.935,0,1.693,0.742,1.693,1.657v13.25C31.491,25.07,30.732,25.811,29.798,25.811z"/>
</svg>
