<?xml version="1.0" encoding="utf-8"?>
<!-- Generator: Adobe Illustrator 16.0.0, SVG Export Plug-In . SVG Version: 6.00 Build 0)  -->
<!DOCTYPE svg PUBLIC "-//W3C//DTD SVG 1.1//EN" "http://www.w3.org/Graphics/SVG/1.1/DTD/svg11.dtd">
<svg version="1.1" id="图层_1" xmlns="http://www.w3.org/2000/svg" xmlns:xlink="http://www.w3.org/1999/xlink" x="0px" y="0px"
	 width="39.69px" height="39.69px" viewBox="0 0 39.69 39.69" enable-background="new 0 0 39.69 39.69" xml:space="preserve">
<path fill-rule="evenodd" clip-rule="evenodd" fill="none" d="M38.823,23.989c-0.069,0.358-0.34,0.643-0.691,0.725
	c-2,0.463-3.662,1.695-4.678,3.473c-1.018,1.776-1.249,3.842-0.651,5.814c0.108,0.348-0.003,0.726-0.274,0.963
	c-1.834,1.599-3.925,2.816-6.22,3.618c-0.344,0.121-0.723,0.027-0.969-0.24c-1.396-1.509-3.285-2.34-5.319-2.34
	s-3.924,0.831-5.32,2.34c-0.175,0.191-0.419,0.294-0.667,0.294c-0.101,0-0.202-0.019-0.299-0.054
	c-2.295-0.804-4.387-2.023-6.221-3.618C7.241,34.727,7.133,34.347,7.239,34c0.598-1.972,0.367-4.037-0.65-5.813
	c-1.018-1.777-2.679-3.01-4.677-3.473c-0.353-0.082-0.624-0.366-0.692-0.725c-0.231-1.221-0.347-2.438-0.347-3.616
	c0-1.177,0.116-2.395,0.347-3.615c0.068-0.358,0.339-0.643,0.692-0.725c1.998-0.463,3.659-1.697,4.675-3.474
	c1.018-1.774,1.249-3.839,0.65-5.812C7.132,6.398,7.24,6.021,7.514,5.784c1.833-1.599,3.926-2.816,6.221-3.621
	c0.341-0.119,0.72-0.025,0.966,0.242c1.396,1.509,3.287,2.34,5.32,2.34s3.923-0.831,5.319-2.34c0.246-0.267,0.628-0.36,0.966-0.242
	c2.298,0.805,4.39,2.022,6.223,3.62c0.274,0.238,0.383,0.615,0.276,0.963c-0.6,1.974-0.368,4.037,0.649,5.813
	c1.016,1.777,2.678,3.011,4.678,3.474c0.352,0.082,0.622,0.367,0.691,0.725c0.229,1.224,0.346,2.441,0.346,3.615
	C39.169,21.549,39.053,22.765,38.823,23.989z M37.129,17.665c-2.208-0.673-4.102-2.174-5.256-4.187
	c-1.152-2.011-1.496-4.411-0.97-6.672c-1.406-1.146-2.97-2.056-4.661-2.71c-1.694,1.608-3.88,2.487-6.221,2.487
	c-2.304,0-4.538-0.9-6.22-2.487c-1.691,0.655-3.254,1.565-4.66,2.711c0.522,2.261,0.179,4.661-0.974,6.671
	c-1.154,2.013-3.045,3.514-5.253,4.187c-0.144,0.918-0.218,1.826-0.218,2.708c0,0.883,0.074,1.791,0.218,2.709
	c2.208,0.674,4.1,2.173,5.253,4.188c1.17,2.041,1.508,4.388,0.974,6.671c1.405,1.145,2.969,2.055,4.659,2.71
	c1.683-1.586,3.916-2.486,6.22-2.486c2.341,0,4.527,0.878,6.221,2.486c1.688-0.655,3.253-1.565,4.66-2.71
	c-0.525-2.26-0.179-4.662,0.971-6.671c1.154-2.016,3.048-3.515,5.256-4.188c0.145-0.921,0.217-1.827,0.217-2.709
	C37.346,19.493,37.273,18.584,37.129,17.665z M25.222,22.259c-0.495-0.091-0.823-0.568-0.732-1.066
	c0.057-0.318,0.081-0.578,0.081-0.819c0-2.528-2.04-4.585-4.549-4.585s-4.551,2.058-4.551,4.585c0,2.529,2.042,4.588,4.551,4.588
	c0.239,0,0.498-0.028,0.813-0.085c0.497-0.097,0.97,0.24,1.06,0.739c0.091,0.499-0.237,0.977-0.734,1.067
	c-0.425,0.077-0.787,0.114-1.138,0.114c-3.514,0-6.374-2.881-6.374-6.424c0-3.541,2.86-6.422,6.374-6.422s6.375,2.881,6.375,6.422
	c0,0.354-0.037,0.721-0.115,1.148C26.192,22.021,25.718,22.352,25.222,22.259z"/>
</svg>
