<?xml version="1.0" encoding="utf-8"?>
<!-- Generator: Adobe Illustrator 16.0.0, SVG Export Plug-In . SVG Version: 6.00 Build 0)  -->
<!DOCTYPE svg PUBLIC "-//W3C//DTD SVG 1.1//EN" "http://www.w3.org/Graphics/SVG/1.1/DTD/svg11.dtd">
<svg version="1.1" id="图层_1" xmlns="http://www.w3.org/2000/svg" xmlns:xlink="http://www.w3.org/1999/xlink" x="0px" y="0px"
	 width="39.69px" height="39.69px" viewBox="0 0 39.69 39.69" enable-background="new 0 0 39.69 39.69" xml:space="preserve">
<path fill-rule="evenodd" clip-rule="evenodd" fill="none" d="M30.191,26.744c0.064,0.194,0.092,0.399,0.074,0.609l0.028,0.223
	H30.23c-0.015,0.053-0.021,0.103-0.039,0.153l-0.033,0.137c-0.272,0.789-1.131,1.202-1.912,0.927
	c-0.397-0.142-0.7-0.438-0.864-0.795l-0.048,0.049l-0.021-0.236c-0.063-0.202-0.086-0.417-0.059-0.634l-0.387-4.188l6.042-6.396
	l-8.807-1.828l-4.406-7.681v0.122l-4.309,7.615l-8.624,1.89l5.853,6.25l-1.226,9.135l8.306-3.94l3.268,1.44l-0.019,0.047
	c0.731,0.325,1.109,1.161,0.84,1.937l-0.034,0.141c-0.284,0.813-1.168,1.24-1.974,0.955c-0.033-0.011-0.06-0.029-0.093-0.043v0.009
	l-1.995-0.942L9.462,36.529c-0.553-0.144-1.042-0.478-1.368-0.954L9.5,24.24l-7.849-8.441c0.043-0.561,0.282-1.082,0.664-1.482
	l11.077-2.143l5.7-10.413c0.397-0.099,0.809-0.094,1.203,0.013l5.692,10.4l11.039,2.136c0.394,0.409,0.637,0.946,0.673,1.522
	L29.88,24.24L30.191,26.744z M28.082,32.366l2.08,2.076l5.227-5.244c0.614-0.62,1.61-0.62,2.225,0c0.613,0.619,0.613,1.62,0,2.24
	l-6.169,6.186c-0.048,0.067-0.075,0.145-0.135,0.204c-0.315,0.317-0.731,0.465-1.146,0.457c-0.416,0.008-0.831-0.14-1.147-0.457
	c-0.058-0.06-0.084-0.136-0.133-0.201l-3.025-3.022c-0.614-0.616-0.614-1.621,0-2.238C26.474,31.747,27.468,31.747,28.082,32.366z"
	/>
</svg>
