<?xml version="1.0" encoding="utf-8"?>
<!-- Generator: Adobe Illustrator 16.0.0, SVG Export Plug-In . SVG Version: 6.00 Build 0)  -->
<!DOCTYPE svg PUBLIC "-//W3C//DTD SVG 1.1//EN" "http://www.w3.org/Graphics/SVG/1.1/DTD/svg11.dtd">
<svg version="1.1" id="图层_1" xmlns="http://www.w3.org/2000/svg" xmlns:xlink="http://www.w3.org/1999/xlink" x="0px" y="0px"
	 width="39.69px" height="39.69px" viewBox="0 0 39.69 39.69" enable-background="new 0 0 39.69 39.69" xml:space="preserve">
<path fill-rule="evenodd" clip-rule="evenodd" fill="none" d="M14.366,1.101H6.822c-3.124,0-5.657,2.533-5.657,5.657V14.3
	c0,1.04,0.845,1.885,1.885,1.885c1.042,0,1.886-0.845,1.886-1.885V8.644c0-2.082,1.689-3.771,3.771-3.771h5.658
	c1.041,0,1.885-0.845,1.885-1.886C16.251,1.945,15.407,1.101,14.366,1.101z M14.366,35.038H8.708c-2.082,0-3.771-1.688-3.771-3.77
	v-5.654c0-1.043-0.844-1.887-1.886-1.887c-1.041,0-1.885,0.844-1.885,1.887v7.539c0,3.125,2.533,5.658,5.657,5.658h7.543
	c1.041,0,1.885-0.844,1.885-1.887C16.251,35.883,15.407,35.038,14.366,35.038z M38.88,6.758c0-3.125-2.532-5.657-5.657-5.657h-7.541
	c-1.042,0-1.887,0.844-1.887,1.886c0,1.041,0.845,1.886,1.887,1.886h5.655c2.084,0,3.77,1.688,3.77,3.771V14.3
	c0,1.04,0.845,1.885,1.886,1.885c1.043,0,1.888-0.845,1.888-1.885V6.758z M38.88,25.614c0-1.043-0.845-1.887-1.888-1.887
	c-1.041,0-1.886,0.844-1.886,1.887v5.654c0,2.082-1.686,3.77-3.77,3.77h-5.655c-1.042,0-1.887,0.845-1.887,1.887
	c0,1.043,0.845,1.887,1.887,1.887h7.541c3.125,0,5.657-2.533,5.657-5.658V25.614z"/>
</svg>
