<?xml version="1.0" encoding="utf-8"?>
<!-- Generator: Adobe Illustrator 16.0.0, SVG Export Plug-In . SVG Version: 6.00 Build 0)  -->
<!DOCTYPE svg PUBLIC "-//W3C//DTD SVG 1.1//EN" "http://www.w3.org/Graphics/SVG/1.1/DTD/svg11.dtd">
<svg version="1.1" id="图层_1" xmlns="http://www.w3.org/2000/svg" xmlns:xlink="http://www.w3.org/1999/xlink" x="0px" y="0px"
	 width="39.69px" height="39.69px" viewBox="0 0 39.69 39.69" enable-background="new 0 0 39.69 39.69" xml:space="preserve">
<path fill-rule="evenodd" clip-rule="evenodd" fill="none" d="M20.042,38.863c-10.432,0-18.917-8.484-18.917-18.912
	c0-10.431,8.485-18.916,18.917-18.916c10.431,0,18.917,8.485,18.917,18.916C38.959,30.379,30.474,38.863,20.042,38.863z
	 M20.042,3.737c-8.941,0-16.215,7.273-16.215,16.214c0,8.938,7.274,16.211,16.215,16.211c8.942,0,16.214-7.272,16.214-16.211
	C36.257,11.01,28.984,3.737,20.042,3.737z M11.638,22.327l1.759-2.053l5.056,4.334l7.302-12.977l2.354,1.325l-8.914,15.844
	L11.638,22.327z"/>
</svg>
