<?xml version="1.0" encoding="utf-8"?>
<!-- Generator: Adobe Illustrator 16.0.0, SVG Export Plug-In . SVG Version: 6.00 Build 0)  -->
<!DOCTYPE svg PUBLIC "-//W3C//DTD SVG 1.1//EN" "http://www.w3.org/Graphics/SVG/1.1/DTD/svg11.dtd">
<svg version="1.1" id="图层_1" xmlns="http://www.w3.org/2000/svg" xmlns:xlink="http://www.w3.org/1999/xlink" x="0px" y="0px"
	 width="39.69px" height="39.69px" viewBox="0 0 39.69 39.69" enable-background="new 0 0 39.69 39.69" xml:space="preserve">
<path fill-rule="evenodd" clip-rule="evenodd" fill="none" d="M19.933,2.715c-10.511,0-19.032,5.853-19.032,13.072
	c0,2.93,1.433,5.615,3.806,7.792V36.33h3.807v-1.245l6.344-6.226c0,0,5.318,0,5.075,0c10.512,0,19.034-5.853,19.034-13.072
	S30.445,2.715,19.933,2.715z M19.933,25.125h-6.344l-5.075,4.979v-8.714c0,0-3.807-1.307-3.807-5.603
	c0-5.156,6.817-9.337,15.226-9.337c8.409,0,15.226,4.181,15.226,9.337C35.159,20.943,28.342,25.125,19.933,25.125z"/>
</svg>
