<?xml version="1.0" encoding="utf-8"?>
<!-- Generator: Adobe Illustrator 16.0.0, SVG Export Plug-In . SVG Version: 6.00 Build 0)  -->
<!DOCTYPE svg PUBLIC "-//W3C//DTD SVG 1.1//EN" "http://www.w3.org/Graphics/SVG/1.1/DTD/svg11.dtd">
<svg version="1.1" id="图层_1" xmlns="http://www.w3.org/2000/svg" xmlns:xlink="http://www.w3.org/1999/xlink" x="0px" y="0px"
	 width="39.69px" height="39.69px" viewBox="0 0 39.69 39.69" enable-background="new 0 0 39.69 39.69" xml:space="preserve">
<path fill="none" d="M8.415,39.02c-0.659,0-1.257-0.309-1.641-0.847c-0.3-0.425-0.453-0.951-0.453-1.57V4.405
	c0-1.775,1.445-3.22,3.221-3.22h21.16c1.775,0,3.22,1.444,3.22,3.22v32.197c0,1.643-1.063,2.393-2.05,2.393
	c-0.381,0-0.973-0.112-1.628-0.643l-9.105-7.415c-0.275-0.225-0.911-0.235-1.192-0.021l-9.946,7.518
	C9.493,38.817,8.946,39.02,8.415,39.02z M9.542,3.945c-0.25,0-0.461,0.21-0.461,0.46v31.264l9.202-6.953
	c1.271-0.963,3.362-0.926,4.598,0.082l8.28,6.743V4.405c0-0.25-0.211-0.46-0.459-0.46H9.542z"/>
</svg>
