<?xml version="1.0" encoding="utf-8"?>
<!-- Generator: Adobe Illustrator 16.0.0, SVG Export Plug-In . SVG Version: 6.00 Build 0)  -->
<!DOCTYPE svg PUBLIC "-//W3C//DTD SVG 1.1//EN" "http://www.w3.org/Graphics/SVG/1.1/DTD/svg11.dtd">
<svg version="1.1" id="图层_1" xmlns="http://www.w3.org/2000/svg" xmlns:xlink="http://www.w3.org/1999/xlink" x="0px" y="0px"
	 width="39.69px" height="39.69px" viewBox="0 0 39.69 39.69" enable-background="new 0 0 39.69 39.69" xml:space="preserve">
<path fill-rule="evenodd" clip-rule="evenodd" fill="none" d="M34.117,38.658H23.941c-1.868,0-3.391-1.521-3.391-3.391V25.093
	c0-1.87,1.522-3.392,3.391-3.392h10.176c1.872,0,3.393,1.521,3.393,3.392v10.175C37.51,37.137,35.989,38.658,34.117,38.658z
	 M35.25,25.093c0-0.623-0.506-1.132-1.133-1.132H23.941c-0.622,0-1.127,0.509-1.127,1.132v10.175c0,0.622,0.505,1.131,1.127,1.131
	h10.176c0.627,0,1.133-0.509,1.133-1.131V25.093z M14.897,38.658H4.722c-1.871,0-3.392-1.521-3.392-3.391V25.093
	c0-1.87,1.521-3.392,3.392-3.392h10.176c1.871,0,3.393,1.521,3.393,3.392v10.175C18.29,37.137,16.768,38.658,14.897,38.658z
	 M16.029,25.093c0-0.623-0.507-1.132-1.131-1.132H4.722c-0.624,0-1.13,0.509-1.13,1.132v10.175c0,0.622,0.507,1.131,1.13,1.131
	h10.176c0.624,0,1.131-0.509,1.131-1.131V25.093z M14.897,19.44H4.722c-1.871,0-3.392-1.521-3.392-3.392V5.874
	c0-1.87,1.521-3.392,3.392-3.392h10.176c1.871,0,3.393,1.522,3.393,3.392v10.175C18.29,17.919,16.768,19.44,14.897,19.44z
	 M16.029,5.874c0-0.623-0.507-1.131-1.131-1.131H4.722c-0.624,0-1.13,0.508-1.13,1.131v10.175c0,0.624,0.507,1.131,1.13,1.131
	h10.176c0.624,0,1.131-0.507,1.131-1.131V5.874z"/>
<path fill="none" d="M33.837,3.047c2.027,0,3.673,1.648,3.673,3.674c0,0.495-0.138,1-0.376,1.351
	c-1.291,1.938-5.725,6.331-7.536,8.098c-1.813-1.767-6.244-6.159-7.54-8.098c-0.235-0.351-0.376-0.856-0.376-1.351
	c0-2.026,1.649-3.674,3.677-3.674c1.355,0,2.599,0.747,3.241,1.947c0.196,0.368,0.579,0.598,0.998,0.598
	c0.417,0,0.8-0.229,0.996-0.598C31.233,3.794,32.478,3.047,33.837,3.047 M33.837,1.917c-1.837,0-3.432,1.031-4.239,2.544
	c-0.811-1.513-2.403-2.544-4.239-2.544c-2.656,0-4.808,2.151-4.808,4.804c0,0.705,0.198,1.427,0.566,1.979
	c1.721,2.576,8.48,9.043,8.48,9.043s6.755-6.467,8.481-9.043c0.366-0.552,0.563-1.274,0.563-1.979
	C38.642,4.068,36.49,1.917,33.837,1.917L33.837,1.917z"/>
</svg>
