<?xml version="1.0" encoding="utf-8"?>
<!-- Generator: Adobe Illustrator 16.0.0, SVG Export Plug-In . SVG Version: 6.00 Build 0)  -->
<!DOCTYPE svg PUBLIC "-//W3C//DTD SVG 1.1//EN" "http://www.w3.org/Graphics/SVG/1.1/DTD/svg11.dtd">
<svg version="1.1" id="图层_1" xmlns="http://www.w3.org/2000/svg" xmlns:xlink="http://www.w3.org/1999/xlink" x="0px" y="0px"
	 width="39.69px" height="39.69px" viewBox="0 0 39.69 39.69" enable-background="new 0 0 39.69 39.69" xml:space="preserve">
<path fill-rule="evenodd" clip-rule="evenodd" fill="none" d="M31.248,20.08c0,0.929-0.752,1.682-1.683,1.682l-9.663-0.014
	c-0.151,0.045-0.308,0.075-0.473,0.075c-0.724,0-1.335-0.457-1.573-1.099c-0.086-0.204-0.135-0.425-0.135-0.66
	c0-0.087,0.013-0.17,0.026-0.253l0.014-9.831c0-0.929,0.754-1.682,1.684-1.682c0.929,0,1.683,0.753,1.683,1.682l-0.014,8.404
	l8.451,0.014C30.496,18.398,31.248,19.151,31.248,20.08z M19.427,38.571c-3.952,0-7.598-1.262-10.603-3.373
	c-0.711-0.194-1.236-0.841-1.236-1.615l-0.016-0.155c0-0.93,0.752-1.683,1.682-1.683c0.489,0,0.924,0.212,1.231,0.544
	c2.505,1.824,5.58,2.918,8.917,2.918c8.379,0,15.171-6.792,15.171-15.17S27.78,4.868,19.401,4.868S4.23,11.658,4.23,20.037
	c0,2.314,0.534,4.499,1.461,6.463l-0.273,0.27c0.615,0.251,1.049,0.854,1.049,1.559l0.015,0.155c0,0.931-0.753,1.683-1.683,1.683
	c-0.768,0-1.408-0.517-1.61-1.22c-1.447-2.638-2.275-5.664-2.275-8.884c0-10.223,8.289-18.51,18.513-18.51
	c10.223,0,18.512,8.288,18.512,18.51C37.938,30.285,29.649,38.571,19.427,38.571z"/>
</svg>
